#!OML:ASF H:\GeneralSubjects\Female5\Project 1\Capture day 1\Session 1\Female5.ASF
:FULLY-SPECIFIED
:DEGREES
160
root 0.915042 15.4094 -0.497106 0.137332 -78.8437 2.82406
lowerback 6.28682 -2.4967 -0.589141
upperback -12.0658 -3.40147 4.20596
thorax -16.812 -1.29699 5.87868
lowerneck -13.0359 -0.371753 -3.41359
upperneck 25.5012 1.14385 -5.06975
head 10.3376 -0.621764 -1.11527
rclavicle 2.22639e-014 -4.77083e-014
rhumerus 17.9648 31.7423 -72.7837
rradius 103.94
rwrist -85.4741
rhand -20.0136 -14.4611
rfingers 7.12502
rthumb 6.32672 -44.3466
lclavicle 2.22639e-014 -4.77083e-014
lhumerus 4.97275 -25.796 91.4916
lradius 91.66
lwrist 62.9087
lhand -13.0347 22.3853
lfingers 7.12502
lthumb 13.0597 51.9564
rfemur -25.1462 15.5211 20.3092
rtibia 7.98865
rfoot -10.2944 -17.4454
rtoes -32.982
lfemur 5.3365 -6.66935 -33.1747
ltibia 30.7602
lfoot -18.2698 1.78723
ltoes -67.609
161
root 0.679541 15.4481 -0.519274 4.4794 -78.9512 -1.32563
lowerback 6.35469 -2.43962 0.336616
upperback -12.081 -3.1609 4.46587
thorax -16.9391 -1.2793 5.62287
lowerneck -13.2139 -0.375149 -3.65519
upperneck 25.4421 1.37166 -5.72022
head 10.3652 -0.622418 -1.27882
rclavicle 2.06736e-014 -2.70347e-014
rhumerus 17.5543 31.9752 -73.3865
rradius 104.668
rwrist -86.1373
rhand -19.9223 -14.2693
rfingers 7.12502
rthumb 6.41479 -44.1522
lclavicle 2.06736e-014 -2.70347e-014
lhumerus 4.63396 -25.9835 92.0827
lradius 91.7152
lwrist 64.5134
lhand -10.1673 23.478
lfingers 7.12502
lthumb 15.8226 52.8514
rfemur -24.7648 13.7551 22.246
rtibia 8.67314
rfoot -9.68615 -15.3797
rtoes -33.4
lfemur 4.27823 -4.9867 -31.429
ltibia 33.4236
lfoot -17.6396 1.86365
ltoes -67.9133
162
root 0.467194 15.4857 -0.544596 7.2983 -79.0952 -3.83678
lowerback 6.54124 -2.34116 0.85827
upperback -12.1214 -2.92737 4.63352
thorax -17.1585 -1.21715 5.50078
lowerneck -13.4721 -0.388312 -3.77953
upperneck 25.4966 1.57825 -6.41565
head 10.4521 -0.634473 -1.48481
rclavicle -2.5842e-014 6.67916e-014
rhumerus 16.925 32.5311 -73.8414
rradius 105.32
rwrist -86.9414
rhand -20.1129 -13.3992
rfingers 7.12502
rthumb 6.23079 -43.2876
lclavicle -2.5842e-014 6.67916e-014
lhumerus 4.1715 -26.3154 92.6567
lradius 91.4552
lwrist 65.7723
lhand -8.03249 24.1589
lfingers 7.12502
lthumb 17.8776 53.3572
rfemur -24.3425 12.9219 23.4969
rtibia 8.83273
rfoot -9.79272 -14.0725
rtoes -32.2414
lfemur 2.99453 -3.19343 -30.1132
ltibia 36.2106
lfoot -16.9957 2.41512
ltoes -68.2882
163
root 0.270696 15.5197 -0.573176 9.48011 -79.2556 -5.60714
lowerback 6.74869 -2.20735 1.18561
upperback -12.1799 -2.67826 4.73436
thorax -17.4082 -1.12817 5.40942
lowerneck -13.8288 -0.464804 -3.68142
upperneck 25.6213 1.72874 -7.41674
head 10.5903 -0.69592 -1.85048
rclavicle 3.18055e-015 -1.43125e-014
rhumerus 16.3013 33.0646 -74.2288
rradius 105.248
rwrist -86.7785
rhand -17.7029 -12.8321
rfingers 7.12502
rthumb 8.55705 -42.6387
lclavicle 3.18055e-015 -1.43125e-014
lhumerus 3.58887 -26.8779 93.3713
lradius 90.7587
lwrist 66.9037
lhand -6.70888 23.7352
lfingers 7.12502
lthumb 19.1508 52.8124
rfemur -24.2545 12.5118 24.4179
rtibia 9.27693
rfoot -9.85588 -13.3554
rtoes -32.2828
lfemur 1.64763 -1.31957 -29.0966
ltibia 38.7352
lfoot -17.0419 3.43917
ltoes -68.9617
164
root 0.0864126 15.5462 -0.59762 11.8526 -79.3599 -7.52337
lowerback 6.95441 -2.12933 1.50041
upperback -12.1956 -2.49615 4.90458
thorax -17.5929 -1.06468 5.41374
lowerneck -14.2056 -0.533339 -3.74413
upperneck 25.5917 1.90707 -8.34166
head 10.6787 -0.745802 -2.1566
rclavicle 1.74931e-014 -1.74931e-014
rhumerus 16.1573 33.8759 -74.077
rradius 105.609
rwrist -89.1751
rhand -19.7154 -14.0609
rfingers 7.12502
rthumb 6.61454 -43.9375
lclavicle 1.74931e-014 -1.74931e-014
lhumerus 3.12292 -27.4572 93.9294
lradius 90.053
lwrist 68.206
lhand -5.93073 23.1315
lfingers 7.12502
lthumb 19.8989 52.1328
rfemur -24.6283 11.8183 25.3445
rtibia 10.3632
rfoot -10.1448 -12.3321
rtoes -30.4845
lfemur 0.450685 0.383648 -28.2744
ltibia 40.9798
lfoot -17.924 4.67351
ltoes -69.6277
165
root -0.0856333 15.5615 -0.614425 14.4929 -79.445 -9.63659
lowerback 7.12672 -2.13069 1.8518
upperback -12.2028 -2.41084 5.1434
thorax -17.7365 -1.04693 5.49477
lowerneck -14.2321 -0.397149 -3.64549
upperneck 25.0377 2.27339 -9.26252
head 10.512 -0.657797 -2.44301
rclavicle -4.21423e-014 -4.77083e-015
rhumerus 16.2272 34.9447 -73.7939
rradius 105.186
rwrist -89.8449
rhand -18.6198 -14.283
rfingers 7.12502
rthumb 7.6721 -44.1238
lclavicle -4.21423e-014 -4.77083e-015
lhumerus 2.80376 -27.8926 94.2039
lradius 89.4784
lwrist 69.7942
lhand -6.08265 22.7935
lfingers 7.12502
lthumb 19.7529 51.8099
rfemur -25.377 10.8473 26.3035
rtibia 11.7748
rfoot -10.3192 -10.9255
rtoes -25.2448
lfemur -0.425405 1.85066 -27.6287
ltibia 42.6592
lfoot -18.8161 5.89998
ltoes -70.0859
